<?xml version="1.0" encoding="UTF-8"?>
<svg width="95px" height="57px" viewBox="0 0 95 57" version="1.1" xmlns="http://www.w3.org/2000/svg" xmlns:xlink="http://www.w3.org/1999/xlink">
    <title>Cboe_Vix_Logo</title>
    <g id="01-Layouts" stroke="none" stroke-width="1" fill="none" fill-rule="evenodd">
        <g id="Land-page" transform="translate(-1169.000000, -894.000000)" fill-rule="nonzero">
            <g id="Section-2" transform="translate(0.000000, 788.000000)">
                <g id="Comparison-Chart" transform="translate(745.000000, 102.000000)">
                    <g id="Logos" transform="translate(212.000000, 0.000000)">
                        <g id="Cboe_Vix_Logo" transform="translate(212.000000, 4.500000)">
                            <polygon id="Path" fill="#0DB14B" points="88.8257391 17.9005217 87.0386087 19.6876522 91.3481739 24.002087 87.0386087 28.3116522 88.8257391 30.0987826 94.9224348 24.002087"></polygon>
                            <path d="M20.9391304,5.17634783 C20.8985934,5.17371684 20.8579284,5.17371684 20.8173913,5.17634783 L20.7151304,5.17634783 C19.6656132,5.15256226 18.6379142,5.47800028 17.7933913,6.10156522 L17.7933913,1.42191304 L15.8747826,1.42191304 L15.8747826,15.3001739 L17.5304348,15.3001739 L17.6521739,14.5161739 C18.5361972,15.1873354 19.6254466,15.53149 20.7346087,15.490087 L20.7686957,15.490087 C22.059601,15.5250496 23.3062468,15.0182687 24.2066087,14.0925217 C25.1170158,13.0571957 25.5931711,11.7107052 25.536,10.3332174 C25.536,7.28 23.7391304,5.2786087 20.9391304,5.17634783 M20.797913,13.853913 L20.7151304,13.853913 C19.0497391,13.853913 18.0173913,12.5050435 18.0173913,10.3332174 C18.0173913,8.1613913 19.0594783,6.8173913 20.7346087,6.8173913 L20.9391304,6.8173913 C22.4973913,6.90991304 23.4566957,8.23930435 23.4566957,10.338087 C23.4566957,12.4368696 22.4486957,13.8149565 20.8222609,13.8587826" id="Shape" fill="#1A2857"></path>
                            <path d="M30.8584348,5.17147826 C29.5526496,5.1279989 28.2894778,5.63928274 27.3815652,6.57878261 C26.4752866,7.61237888 26.0010672,8.95483814 26.0570435,10.3283478 C26.0570435,13.4643478 27.5812174,15.490087 30.877913,15.490087 C32.1807643,15.5359385 33.4421514,15.0281992 34.349913,14.0925217 C35.2615069,13.0559613 35.7377442,11.7074945 35.6793043,10.3283478 C35.6793043,7.19721739 33.7850435,5.17147826 30.8584348,5.17147826 M30.8584348,13.853913 C29.1930435,13.853913 28.1606957,12.5050435 28.1606957,10.3283478 C28.1606957,8.15165217 29.2173913,6.8173913 30.877913,6.8173913 C32.5384348,6.8173913 33.6,8.15652174 33.6,10.3283478 C33.6,12.5001739 32.557913,13.853913 30.8827826,13.853913" id="Shape" fill="#1A2857"></path>
                            <path d="M38.2358261,10.8104348 C38.2358261,12.8069565 39.277913,13.853913 41.1234783,13.853913 C42.2241866,13.8724783 43.2915687,13.4761214 44.1133913,12.7436522 L44.9412174,14.0827826 C44.9412174,14.0827826 43.6361739,15.4754783 40.9043478,15.4754783 C38.1725217,15.4754783 36.210087,13.586087 36.210087,10.3526957 C36.210087,7.11930435 38.2358261,5.18608696 40.9043478,5.18608696 C43.5728696,5.18608696 45.1262609,7.1826087 45.1262609,10.0069565 L45.101913,10.8006957 L38.2358261,10.8104348 Z M40.8215652,6.70052174 C39.0977391,6.70052174 38.338087,8.12730435 38.2358261,9.33008696 L43.2076522,9.33008696 C43.2076522,7.98608696 42.525913,6.70052174 40.8215652,6.70052174" id="Shape" fill="#1A2857"></path>
                            <polygon id="Path" fill="#0DB14B" points="12.2518261 6.09182609 11.0052174 4.84521739 11.7210435 4.13426087 12.2518261 3.60347826 13.4984348 4.84521739"></polygon>
                            <polygon id="Path" fill="#0DB14B" points="12.2566957 2.49321739 11.010087 1.2466087 11.6382609 0.618434783 12.2566957 0 13.5033043 1.2466087"></polygon>
                            <polygon id="Path" fill="#0DB14B" points="14.0535652 4.29495652 12.8069565 3.04834783 13.4984348 2.35686957 14.0535652 1.80173913 15.3001739 3.04834783"></polygon>
                            <path d="M6.76382609,13.5714783 C3.97843478,13.5714783 2.17182609,11.3314783 2.17182609,8.05426087 C2.17182609,4.77704348 4.07095652,2.53217391 6.8173913,2.53217391 C8.83826087,2.53217391 9.73913043,3.55965217 10.4403478,4.29008696 L11.6869565,3.04347826 C11.0246957,2.3666087 9.70017391,0.701217391 6.75408696,0.701217391 C3.1213913,0.701217391 0,3.43791304 0,8.07373913 C0,12.7095652 2.80486957,15.4706087 6.67130435,15.4706087 C8.62555249,15.5305102 10.4948314,14.670678 11.7210435,13.1478261 L10.4306087,11.8525217 C9.52039582,12.9341552 8.177473,13.5565723 6.76382609,13.552" id="Path" fill="#1A2857"></path>
                            <path d="M37.6709565,19.1373913 L46.8598261,19.1373913 L46.8598261,55.8393043 L37.6709565,55.8393043 L37.6709565,19.1373913 Z M73.3892174,55.8393043 L66.0507826,42.6038261 L58.653913,55.8393043 L48.0772174,55.8393043 L60.445913,37.0086957 L49.1826087,19.1373913 L59.472,19.1373913 L66.002087,31.2772174 L72.5808696,19.1373913 L82.9286957,19.1373913 L71.8309565,36.9405217 L83.965913,55.8393043 L73.3892174,55.8393043 Z M23.8608696,55.8393043 L24.0897391,55.8393043 L36.1126957,19.1373913 L27.1526957,19.1373913 L20.1405217,42.9446957 L23.8608696,55.8393043 Z M11.2486957,19.1373913 L1.6653913,19.1373913 L13.6883478,55.8393043 L21.9130435,55.8393043 L11.2486957,19.1373913 Z M87.213913,55.965913 C85.3810288,55.960538 83.8990343,54.4712845 83.9026086,52.6383958 C83.9061958,50.8055072 85.3939978,49.3220555 87.226889,49.3238403 C89.0597803,49.3256284 90.5446878,50.8119774 90.5446957,52.6448696 C90.5526124,53.529762 90.2039173,54.3805754 89.5772633,55.0053971 C88.9506093,55.6302188 88.0987785,55.976421 87.213913,55.965913 M87.213913,49.7864348 C85.6352431,49.7864348 84.3554783,51.0661996 84.3554783,52.6448696 C84.3554783,54.2235395 85.6352431,55.5033043 87.213913,55.5033043 C88.792583,55.5033043 90.0723478,54.2235395 90.0723478,52.6448696 C90.0789064,51.8847739 89.7798573,51.1539029 89.2423685,50.6164141 C88.7048797,50.0789253 87.9740087,49.7798762 87.213913,49.7864348 M88.0612174,54.5342609 L87.1798261,53.0295652 L86.6928696,53.0295652 L86.6928696,54.5391304 L86.0403478,54.5391304 L86.0403478,50.7408696 L87.3502609,50.7408696 C88.0368696,50.7408696 88.6601739,51.1012174 88.6601739,51.8803478 C88.6829413,52.3767932 88.3597817,52.8231574 87.8810435,52.9565217 L88.8306087,54.5391304 L88.0612174,54.5342609 Z M87.2333913,51.2326957 L86.6782609,51.2326957 L86.6782609,52.5328696 L87.2431304,52.5328696 C87.4283398,52.5602489 87.6159149,52.5015682 87.7525004,52.3735193 C87.889086,52.2454704 87.9597336,52.0620671 87.9443478,51.8754783 C87.9443478,51.4372174 87.661913,51.2326957 87.2431304,51.2326957" id="Shape" fill="#A5AAAD"></path>
                        </g>
                    </g>
                </g>
            </g>
        </g>
    </g>
</svg>