<?xml version="1.0" encoding="UTF-8"?>
<svg width="149px" height="97px" viewBox="0 0 149 97" version="1.1" xmlns="http://www.w3.org/2000/svg" xmlns:xlink="http://www.w3.org/1999/xlink">
    <title>spikes_LOGO_RGB_charcoal_blue</title>
    <g id="01-Layouts" stroke="none" stroke-width="1" fill="none" fill-rule="evenodd">
        <g id="Land-page" transform="translate(-60.000000, -27.000000)" fill-rule="nonzero">
            <g id="spikes_LOGO_RGB_charcoal_blue" transform="translate(60.000000, 27.000000)">
                <polygon id="Path" fill="#414042" points="63.5410059 17.2134675 63.5410059 43.9611716 59.7763314 43.9611716 59.7763314 17.2134675"></polygon>
                <polygon id="Path" fill="#414042" points="64.2727811 10.6116213 61.6630769 13.9954201 59.0480828 10.6116213 61.6630769 7.2295858"></polygon>
                <path d="M17.0159763,29.2339763 L12.0786982,28.4316686 C8.75132544,27.8779882 7.21195266,26.5819527 7.21195266,23.991645 C7.21195266,21.1597633 9.73701775,19.4334793 13.5598817,19.4334793 C18.4971598,19.4334793 21.3272781,21.5265325 22.0043905,26.3333254 L24.9068047,26.0970414 C24.4747929,19.7491124 20.4703077,16.4799172 13.5651716,16.4799172 C7.71097041,16.4728757 3.70295858,19.6168639 3.70295858,24.4236568 C3.70295858,28.7384852 6.60008284,30.8967811 11.2852071,31.6990888 L15.9033254,32.4961065 C19.6644734,33.1749822 21.7592899,34.1007219 21.7592899,37.0595621 C21.7592899,40.2035503 18.863929,41.7429231 14.7342485,41.7429231 C9.62063905,41.7429231 6.47488757,39.1543787 5.91768047,34.5309704 L2.89888757,34.9012663 C3.32913609,41.4960592 8.32284024,44.7035266 14.7924379,44.7035266 C20.6484024,44.7035266 25.3317701,41.9263077 25.3317701,36.6892663 C25.3370533,31.942426 22.2583077,30.0944734 17.0159763,29.2339763 Z" id="Path" fill="#414042"></path>
                <path d="M43.0248521,16.4728757 C37.8477633,16.4728757 34.3334793,19.7402959 33.1608757,23.1311479 L33.1608757,17.2152308 L29.3979645,17.2152308 L29.3979645,59.2808402 L33.1502959,54.4176213 L33.1502959,38.1052071 C34.146568,40.9935148 36.8444379,43.7478107 40.8189467,44.4936923 C41.5460141,44.6322696 42.2847006,44.7007649 43.0248521,44.6982367 C50.9756331,44.6982367 55.4103669,38.475503 55.4103669,30.5917278 C55.4103669,22.7079527 50.9703432,16.4728757 43.0248521,16.4728757 Z M43.0530651,41.6142012 L43.0530651,41.6142012 C42.8767337,41.6142012 42.7004024,41.6247811 42.524071,41.6247811 C37.221787,41.6247811 33.0303905,37.9218225 33.0303905,31.5174675 L33.0303905,29.6642249 C33.0303905,23.2545799 37.221787,19.5569112 42.524071,19.5569112 C48.1931243,19.5569112 51.4587818,23.8082604 51.4587818,30.5864379 C51.4605444,37.1530178 48.3959053,41.3497041 43.0530651,41.6142012 Z" id="Shape" fill="#414042"></path>
                <polygon id="Path" fill="#414042" points="59.7763314 17.2152308 59.7763314 43.9611716 63.5339527 43.9611716 63.5339527 17.2152308"></polygon>
                <path d="M118.069716,29.7876568 C118.069716,22.5122249 113.880083,16.4728757 105.495527,16.4728757 C97.9132781,16.4728757 92.1842722,22.5122249 92.1842722,30.9567337 C92.1842722,39.217858 97.9767574,44.7105799 105.742391,44.7105799 C112.277231,44.7105799 116.713728,40.9476686 118.009763,34.8483669 L114.802296,34.4145917 C113.693172,39.161432 110.674379,41.6265444 105.742391,41.6265444 C100.44187,41.6265444 96.3139527,37.4386746 96.0653254,31.5192308 L118.069716,31.5192308 L118.069716,29.7876568 Z M96.130568,28.8619172 C96.7442012,23.868213 100.198533,19.4334793 105.495527,19.4334793 C111.168107,19.4334793 113.940036,23.9316923 114.063467,28.8619172 L96.130568,28.8619172 Z" id="Shape" fill="#414042"></path>
                <path d="M134.953444,29.2339763 L130.016166,28.4316686 C126.690556,27.8779882 125.14942,26.5819527 125.14942,23.991645 C125.14942,21.1597633 127.674485,19.4334793 131.497349,19.4334793 C136.434627,19.4334793 139.255929,21.5265325 139.941858,26.3333254 L142.844272,26.0970414 C142.414024,19.7491124 138.404249,16.479929 131.504402,16.479929 C125.648438,16.479929 121.642189,19.6239172 121.642189,24.4307101 C121.642189,28.7455385 124.539314,30.9038343 129.224438,31.706142 L133.846083,32.5031598 C137.608994,33.1820355 139.702047,34.1077751 139.702047,37.0666154 C139.702047,40.2106036 136.806686,41.7499763 132.678769,41.7499763 C127.56516,41.7499763 124.417645,39.161432 123.862201,34.5380237 L120.843408,34.9083195 C121.273657,41.5031124 126.267361,44.7105799 132.738722,44.7105799 C138.594686,44.7105799 143.276284,41.9333609 143.276284,36.6963195 C143.274521,31.942426 140.195775,30.0944734 134.953444,29.2339763 Z" id="Path" fill="#414042"></path>
                <polygon id="Path" fill="#414042" points="92.7467692 43.9611716 88.1833136 43.9611716 76.6600592 30.4030533 72.470426 33.9173373 72.470426 43.9611716 68.7092781 43.9611716 68.7092781 4.86674556 72.4668994 0 72.470426 30.154426 87.1976213 17.2152308 92.1278462 17.2152308 79.4319882 28.3082367"></polygon>
                <polygon id="Path" fill="#0052A8" points="146.150485 68.0356923 143.246308 71.7933136 0 71.7933136 2.90417751 68.0356923"></polygon>
                <polygon id="Path" fill="#414042" points="112.02155 85.4431243 112.02155 95.8695976 110.041349 95.8695976 110.041349 85.4431243"></polygon>
                <rect id="Rectangle" fill="#414042" x="110.041349" y="81.2605444" width="1.98020118" height="2.24293491"></rect>
                <path d="M104.005527,85.1574675 C106.72632,85.1574675 107.680272,87.0424497 107.680272,89.4035266 L107.680272,95.8695976 L105.700071,95.8695976 L105.700071,89.5763314 C105.700071,87.8341775 104.984166,86.7373964 103.386604,86.7373964 C101.907183,86.7373964 100.71342,87.971716 100.71342,89.8866746 L100.71342,95.8819408 L98.7332189,95.8819408 L98.7332189,89.5763314 C98.7332189,87.8341775 98.0173136,86.7373964 96.4197515,86.7373964 C94.9403314,86.7373964 93.7747811,87.971716 93.7747811,89.8866746 L93.7747811,95.8819408 L91.7910533,95.8819408 L91.7910533,85.4431243 L93.7712544,85.4431243 L93.7712544,87.3051834 C94.2720355,86.0391243 95.4887219,85.1574675 97.0880473,85.1574675 C98.9483432,85.1574675 100.045124,86.0638107 100.500059,87.4233254 C101.101131,86.0272153 102.485733,85.1322386 104.005527,85.1574675 L104.005527,85.1574675 Z" id="Path" fill="#414042"></path>
                <path d="M124.333006,94.4078107 C124.098559,94.409229 123.867938,94.3483792 123.66471,94.2314793 C123.249095,93.9936264 122.992229,93.5518439 122.991124,93.0729822 L122.991124,89.1407929 C122.991124,86.4958225 121.441172,85.1574675 118.817361,85.1574675 C116.359302,85.1574675 114.809349,86.5892781 114.409077,88.5447929 L116.172391,88.7828402 C116.482734,87.5661538 117.293858,86.684497 118.796201,86.684497 C120.250935,86.684497 121.088509,87.5661538 121.088509,88.9979645 L121.088509,89.4 L118.267207,89.9730769 C115.761538,90.473858 114.066994,91.2849822 114.066994,93.2651834 C114.066994,95.0549467 115.378899,96.1517278 117.40671,96.1517278 C119.101254,96.1517278 120.580675,95.2453846 121.153751,94.0357515 C121.342426,95.1536923 122.079491,95.8748876 123.093396,95.8748876 C123.160402,95.8748876 123.223882,95.8748876 123.285598,95.8748876 L124.410592,94.4166272 L124.331243,94.4166272 L124.333006,94.4078107 Z M117.838722,94.7005207 C116.646722,94.7005207 116.048959,94.0322249 116.048959,93.1488047 C116.048959,91.8845089 117.106947,91.5741657 118.745065,91.2091598 L121.083219,90.7083787 L121.083219,91.2091598 C121.083219,93.3163195 119.676095,94.7005207 117.838722,94.7005207 Z" id="Shape" fill="#414042"></path>
                <polygon id="Path" fill="#414042" points="135.175621 95.8695976 130.978935 90.440355 134.842355 85.4431243 132.694639 85.4431243 129.90684 89.0508639 127.117278 85.4431243 124.971325 85.4431243 128.832982 90.440355 124.636296 95.8695976 126.784012 95.8695976 129.90684 91.8298462 133.027905 95.8695976"></polygon>
                <polygon id="Path" fill="#414042" points="140.007101 9.68059172 140.007101 4.7944497 137.996923 4.7944497 137.996923 4.16494675 142.794899 4.16494675 142.794899 4.7944497 140.754746 4.7944497 140.754746 9.68059172"></polygon>
                <polygon id="Path" fill="#414042" points="145.930071 9.68059172 144.25845 4.93727811 144.223183 4.93727811 144.223183 9.68059172 143.517858 9.68059172 143.517858 4.16494675 144.734544 4.16494675 146.284497 8.65610651 146.310947 8.65610651 147.78155 4.16494675 148.980604 4.16494675 148.980604 9.68059172 148.220615 9.68059172 148.220615 4.93727811 148.185349 4.93727811 146.570154 9.68059172"></polygon>
            </g>
        </g>
    </g>
</svg>