<?xml version="1.0" encoding="UTF-8"?>
<svg width="107px" height="69px" viewBox="0 0 107 69" version="1.1" xmlns="http://www.w3.org/2000/svg" xmlns:xlink="http://www.w3.org/1999/xlink">
    <title>spikes_LOGO_RGB_charcoal_blue</title>
    <g id="01-Layouts" stroke="none" stroke-width="1" fill="none" fill-rule="evenodd">
        <g id="Land-page" transform="translate(-957.000000, -890.000000)" fill-rule="nonzero">
            <g id="Section-2" transform="translate(0.000000, 788.000000)">
                <g id="Comparison-Chart" transform="translate(745.000000, 102.000000)">
                    <g id="Logos" transform="translate(212.000000, 0.000000)">
                        <g id="spikes_LOGO_RGB_charcoal_blue" transform="translate(0.501946, -0.000000)">
                            <polygon id="Path" fill="#414042" points="45.4168935 12.3035858 45.4168935 31.4219112 42.7260355 31.4219112 42.7260355 12.3035858"></polygon>
                            <polygon id="Path" fill="#414042" points="45.9399408 7.58481657 44.0746154 10.0034379 42.2055089 7.58481657 44.0746154 5.16745562"></polygon>
                            <path d="M12.162426,20.895426 L8.63343195,20.3219645 C6.25514201,19.926213 5.15485207,18.9998521 5.15485207,17.1483905 C5.15485207,15.1242604 6.95968047,13.8903728 9.69213018,13.8903728 C13.2211243,13.8903728 15.2439941,15.3864142 15.7279704,18.822142 L17.8025148,18.6532544 C17.4937278,14.1159763 14.6314615,11.7792696 9.69591124,11.7792696 C5.51153254,11.7742367 2.64674556,14.0214497 2.64674556,17.4571775 C2.64674556,20.5412663 4.71750888,22.0839408 8.06627219,22.6574024 L11.367142,23.2270828 C14.0554793,23.7123195 15.5527811,24.3740059 15.5527811,26.4888817 C15.5527811,28.7360947 13.4832781,29.8363846 10.5315266,29.8363846 C6.87649704,29.8363846 4.62802367,27.9861834 4.22975148,24.6815325 L2.07202367,24.9462071 C2.3795503,29.6599349 5.94887574,31.9525207 10.5731183,31.9525207 C14.7587574,31.9525207 18.1062652,29.9674615 18.1062652,26.2242071 C18.1100414,22.8313314 15.9094615,21.5104793 12.162426,20.895426 Z" id="Path" fill="#414042"></path>
                            <path d="M30.7526627,11.7742367 C27.0522604,11.7742367 24.5403728,14.1096746 23.7022367,16.5333373 L23.7022367,12.3048462 L21.0126391,12.3048462 L21.0126391,42.3718757 L23.6946746,38.8958166 L23.6946746,27.2362722 C24.4067751,29.3007337 26.3351183,31.2694083 29.1759586,31.8025385 C29.6956409,31.9015887 30.2236283,31.9505468 30.7526627,31.9487396 C36.4356036,31.9487396 39.6053964,27.5009467 39.6053964,21.8658994 C39.6053964,16.2308521 36.4318225,11.7742367 30.7526627,11.7742367 Z M30.7728284,29.7443787 L30.7728284,29.7443787 C30.6467929,29.7443787 30.5207574,29.7519408 30.3947219,29.7519408 C26.6048343,29.7519408 23.6089704,27.1051953 23.6089704,22.5275858 L23.6089704,21.2029527 C23.6089704,16.6215621 26.6048343,13.9785976 30.3947219,13.9785976 C34.4467633,13.9785976 36.7809414,17.0173136 36.7809414,21.8621183 C36.7822012,26.5556805 34.5917041,29.5553254 30.7728284,29.7443787 Z" id="Shape" fill="#414042"></path>
                            <polygon id="Path" fill="#414042" points="42.7260355 12.3048462 42.7260355 31.4219112 45.4118521 31.4219112 45.4118521 12.3048462"></polygon>
                            <path d="M84.3921124,21.2911775 C84.3921124,16.0909527 81.3975089,11.7742367 75.4045207,11.7742367 C69.9849941,11.7742367 65.8901006,16.0909527 65.8901006,22.1267929 C65.8901006,28.0315562 70.0303669,31.9575621 75.5809704,31.9575621 C80.2518462,31.9575621 83.4228994,29.2679645 84.3492604,24.9083964 L82.0566746,24.5983491 C81.2639112,27.9912249 79.1061834,29.7532012 75.5809704,29.7532012 C71.7923432,29.7532012 68.8418521,26.759858 68.664142,22.5288462 L84.3921124,22.5288462 L84.3921124,21.2911775 Z M68.7107751,20.6294911 C69.1493787,17.0601657 71.6184142,13.8903728 75.4045207,13.8903728 C79.4590828,13.8903728 81.4403609,17.1055385 81.5285858,20.6294911 L68.7107751,20.6294911 Z" id="Shape" fill="#414042"></path>
                            <path d="M96.4600118,20.895426 L92.9310178,20.3219645 C90.5539882,19.926213 89.4524379,18.9998521 89.4524379,17.1483905 C89.4524379,15.1242604 91.2572663,13.8903728 93.989716,13.8903728 C97.5187101,13.8903728 99.5352781,15.3864142 100.025556,18.822142 L102.100101,18.6532544 C101.792574,14.1159763 98.9265266,11.7792781 93.9947574,11.7792781 C89.8091183,11.7792781 86.9455917,14.0264911 86.9455917,17.4622189 C86.9455917,20.5463077 89.016355,22.0889822 92.3651183,22.6624438 L95.6685089,23.2321243 C98.3581065,23.7173609 99.8541479,24.3790473 99.8541479,26.4939231 C99.8541479,28.7411361 97.784645,29.841426 94.8341538,29.841426 C91.1791243,29.841426 88.9293905,27.9912249 88.5323787,24.686574 L86.3746509,24.9512485 C86.6821775,29.6649763 90.251503,31.9575621 94.8770059,31.9575621 C99.062645,31.9575621 102.408888,29.972503 102.408888,26.2292485 C102.407627,22.8313314 100.207047,21.5104793 96.4600118,20.895426 Z" id="Path" fill="#414042"></path>
                            <polygon id="Path" fill="#414042" points="66.2921538 31.4219112 63.030355 31.4219112 54.7939349 21.7310414 51.7993314 24.242929 51.7993314 31.4219112 49.1109941 31.4219112 49.1109941 3.47857988 51.7968107 0 51.7993314 21.5533314 62.3258166 12.3048462 65.8497692 12.3048462 56.775213 20.2337396"></polygon>
                            <polygon id="Path" fill="#0052A8" points="104.463266 48.6295385 102.387462 51.315355 0 51.315355 2.07580473 48.6295385"></polygon>
                            <polygon id="Path" fill="#414042" points="80.0690947 61.0717633 80.0690947 68.5242426 78.653716 68.5242426 78.653716 61.0717633"></polygon>
                            <rect id="Rectangle" fill="#414042" x="78.653716" y="58.0822012" width="1.4153787" height="1.6031716"></rect>
                            <path d="M74.3395207,60.8675858 C76.2842485,60.8675858 76.9661006,62.2149053 76.9661006,63.9025207 L76.9661006,68.5242426 L75.5507219,68.5242426 L75.5507219,64.0260355 C75.5507219,62.7808047 75.0390178,61.9968639 73.8971361,61.9968639 C72.8396982,61.9968639 71.9864379,62.8791124 71.9864379,64.247858 L71.9864379,68.5330651 L70.5710592,68.5330651 L70.5710592,64.0260355 C70.5710592,62.7808047 70.059355,61.9968639 68.9174734,61.9968639 C67.8600355,61.9968639 67.0269408,62.8791124 67.0269408,64.247858 L67.0269408,68.5330651 L65.6090414,68.5330651 L65.6090414,61.0717633 L67.0244201,61.0717633 L67.0244201,62.4026982 C67.3823609,61.4977633 68.2520059,60.8675858 69.3951479,60.8675858 C70.7248225,60.8675858 71.5087633,61.5154083 71.8339349,62.487142 C72.2635597,61.4892512 73.253225,60.8495531 74.3395207,60.8675858 L74.3395207,60.8675858 Z" id="Path" fill="#414042"></path>
                            <path d="M88.8688935,67.4794083 C88.701319,67.4804221 88.5364795,67.4369288 88.3912189,67.3533728 C88.0941519,67.1833638 87.9105532,66.8675858 87.9097633,66.5253195 L87.9097633,63.7147278 C87.9097633,61.8241953 86.8019112,60.8675858 84.926503,60.8675858 C83.169568,60.8675858 82.061716,61.8909941 81.7756154,63.2887278 L83.0359704,63.4588757 C83.2577929,62.5892308 83.8375562,61.9590533 84.9113787,61.9590533 C85.9511716,61.9590533 86.5498402,62.5892308 86.5498402,63.6126391 L86.5498402,63.9 L84.5332722,64.3096154 C82.7423077,64.6675562 81.5311065,65.2473195 81.5311065,66.6626982 C81.5311065,67.9419586 82.4688107,68.7258994 83.9182189,68.7258994 C85.1294201,68.7258994 86.186858,68.0780769 86.5964734,67.2134734 C86.7313314,68.0125385 87.2581598,68.5280237 87.9828639,68.5280237 C88.0307574,68.5280237 88.0761302,68.5280237 88.1202426,68.5280237 L88.9243491,67.4857101 L88.8676331,67.4857101 L88.8688935,67.4794083 Z M84.2270059,67.6886272 C83.3750059,67.6886272 82.9477456,67.2109527 82.9477456,66.5795148 C82.9477456,65.6758402 83.7039586,65.4540178 84.8748284,65.1931243 L86.5460592,64.8351834 L86.5460592,65.1931243 C86.5460592,66.6992485 85.5402959,67.6886272 84.2270059,67.6886272 Z" id="Shape" fill="#414042"></path>
                            <polygon id="Path" fill="#414042" points="96.6188166 68.5242426 93.6191716 64.6436095 96.3806095 61.0717633 94.845497 61.0717633 92.8528757 63.6504497 90.8589941 61.0717633 89.325142 61.0717633 92.0853195 64.6436095 89.0856746 68.5242426 90.620787 68.5242426 92.8528757 65.6367692 95.0837041 68.5242426"></polygon>
                            <polygon id="Path" fill="#414042" points="100.072189 6.91934911 100.072189 3.42690533 98.6353846 3.42690533 98.6353846 2.97695858 102.064811 2.97695858 102.064811 3.42690533 100.60658 3.42690533 100.60658 6.91934911"></polygon>
                            <polygon id="Path" fill="#414042" points="104.305722 6.91934911 103.110905 3.52899408 103.085698 3.52899408 103.085698 6.91934911 102.581556 6.91934911 102.581556 2.97695858 103.451201 2.97695858 104.559053 6.18708284 104.577959 6.18708284 105.629095 2.97695858 106.486136 2.97695858 106.486136 6.91934911 105.942923 6.91934911 105.942923 3.52899408 105.917716 3.52899408 104.763231 6.91934911"></polygon>
                        </g>
                    </g>
                </g>
            </g>
        </g>
    </g>
</svg>